<svg width="87" height="56" viewBox="0 0 87 56" fill="none" version="1.1" id="Layer_1" xmlns="http://www.w3.org/2000/svg" xmlns:xlink="http://www.w3.org/1999/xlink" x="0px" y="0px"
	 enable-background="new 0 0 1049 1048" xml:space="preserve">
<path fill="#7D6B67"  stroke="none" 
	d="
M1.000001,572.000000 
	C1.000000,541.312439 1.000000,510.624878 1.423871,479.553986 
	C2.231215,477.994812 2.830632,476.842926 2.964067,475.639374 
	C4.052204,465.824585 4.323077,455.855774 6.231000,446.208374 
	C10.359479,425.332642 14.930110,404.525757 20.021612,383.863617 
	C27.110960,355.093872 37.838890,327.548004 50.720245,300.929840 
	C58.451088,284.954712 67.169312,269.423920 76.065979,254.053574 
	C93.770889,223.465637 115.143585,195.481201 139.104706,169.593781 
	C159.938461,147.085129 182.356522,126.127480 206.937683,107.698158 
	C238.593094,83.965019 272.251465,63.530178 308.369690,47.187515 
	C336.847534,34.301949 366.157227,23.782532 396.493011,16.424694 
	C414.147614,12.142638 432.140747,9.196557 450.054993,6.070142 
	C458.785645,4.546452 467.690704,4.035078 476.497894,2.916580 
	C477.398529,2.802202 478.169098,1.663425 479.000000,1.000002 
	C509.687561,1.000000 540.375122,1.000000 571.446045,1.423870 
	C572.339844,2.207595 572.814087,2.809734 573.366150,2.892292 
	C593.811523,5.950102 614.390381,8.289984 634.688904,12.117724 
	C675.025513,19.724073 713.448059,33.421833 750.533813,50.881123 
	C778.720215,64.150742 805.726807,79.563431 830.617249,98.309441 
	C848.481140,111.763474 866.173523,125.593903 882.739502,140.585678 
	C904.358643,160.150406 923.864868,181.855560 941.615479,205.078445 
	C960.315735,229.543518 977.408264,255.088745 991.070740,282.672607 
	C1000.978088,302.674805 1010.080933,323.151215 1018.215210,343.935638 
	C1027.296631,367.140015 1034.502075,391.087921 1038.867310,415.670258 
	C1042.537476,436.338531 1044.996460,457.221375 1048.088257,477.994873 
	C1048.199341,478.741516 1049.339478,479.335083 1050.000000,480.000000 
	C1050.000000,510.020905 1050.000000,540.041809 1049.574219,570.447510 
	C1048.766235,572.009094 1048.168945,573.161926 1048.035522,574.366272 
	C1046.947632,584.179871 1046.627441,594.133484 1044.776855,603.796082 
	C1040.959106,623.729614 1036.757568,643.611328 1031.953491,663.329102 
	C1024.312500,694.690430 1012.566650,724.640381 998.609680,753.680176 
	C985.699524,780.541992 970.518188,806.120117 953.129883,830.357483 
	C938.505371,850.742432 922.645691,870.110535 905.269043,888.214050 
	C885.530029,908.778564 864.420349,927.823730 841.555481,944.865479 
	C834.877563,949.842834 827.854126,954.356567 820.806641,958.715332 
	C818.083130,940.831299 815.836670,923.265015 812.899597,905.814941 
	C810.868530,893.748596 808.133423,881.782715 805.266602,869.879333 
	C801.041199,852.335266 787.667480,841.844421 774.497620,831.364746 
	C770.908386,828.508667 766.796387,826.309448 762.873596,823.396851 
	C762.249390,814.027649 761.277649,805.074890 761.176575,796.112244 
	C760.866943,768.655396 760.569336,741.191162 760.882080,713.736755 
	C761.162598,689.109131 761.931091,664.475220 763.105286,639.873718 
	C763.913269,622.944641 765.143555,605.983521 767.322327,589.184204 
	C770.784485,562.488708 775.421753,535.947876 779.147400,509.283722 
	C783.618469,477.284698 786.051880,445.184296 784.222412,412.789978 
	C782.894409,389.274750 779.520508,366.177460 773.904724,343.338043 
	C762.233521,295.870544 738.508179,255.752426 700.211426,225.121109 
	C643.074707,179.420929 578.002747,159.010910 504.760712,165.881775 
	C476.745026,168.509918 449.620178,174.818451 423.435028,185.047287 
	C381.738007,201.335617 346.289551,226.261322 319.018707,262.053375 
	C286.602386,304.598663 271.848114,353.335266 270.195129,406.257202 
	C269.186646,438.545807 269.363190,470.870026 272.955994,503.046783 
	C275.242676,523.526367 276.809174,544.168274 280.600830,564.380554 
	C288.077759,604.238281 291.740448,644.413147 292.754852,684.836243 
	C293.343475,708.293030 292.806122,731.797913 292.105774,755.261169 
	C291.480652,776.202515 289.935577,797.116272 288.451752,818.067261 
	C281.147644,823.167664 273.853485,827.849243 267.308899,833.412720 
	C257.986603,841.337463 250.065048,850.326294 246.854813,862.809937 
	C238.634964,894.774536 234.285568,927.341797 230.585175,959.950684 
	C227.294861,957.780579 224.175034,955.926147 221.374847,953.674255 
	C203.551605,939.340698 185.075027,925.713989 168.197128,910.335999 
	C144.454956,888.703857 123.200668,864.656311 104.061249,838.729187 
	C82.304665,809.256653 63.606350,778.086670 48.283138,744.805237 
	C34.932171,715.807434 24.143486,685.916321 16.634089,654.938477 
	C12.316889,637.129272 9.263437,618.999390 6.072790,600.937622 
	C4.531582,592.213074 4.035017,583.306458 2.916569,574.501160 
	C2.802201,573.600830 1.663418,572.830627 1.000001,572.000000 
z"/>
<path fill="#000000" opacity="1.000000" stroke="none" 
	d="
M1050.000000,479.531342 
	C1049.339478,479.335083 1048.199341,478.741516 1048.088257,477.994873 
	C1044.996460,457.221375 1042.537476,436.338531 1038.867310,415.670258 
	C1034.502075,391.087921 1027.296631,367.140015 1018.215210,343.935638 
	C1010.080933,323.151215 1000.978088,302.674805 991.070740,282.672607 
	C977.408264,255.088745 960.315735,229.543518 941.615479,205.078445 
	C923.864868,181.855560 904.358643,160.150406 882.739502,140.585678 
	C866.173523,125.593903 848.481140,111.763474 830.617249,98.309441 
	C805.726807,79.563431 778.720215,64.150742 750.533813,50.881123 
	C713.448059,33.421833 675.025513,19.724073 634.688904,12.117724 
	C614.390381,8.289984 593.811523,5.950102 573.366150,2.892292 
	C572.814087,2.809734 572.339844,2.207595 571.914673,1.423870 
	C731.260437,1.000000 890.520935,1.000000 1050.000000,1.000000 
	C1050.000000,160.354156 1050.000000,319.708435 1050.000000,479.531342 
z"/>
<path fill="#000000" opacity="1.000000" stroke="none" 
	d="
M478.531342,1.000002 
	C478.169098,1.663425 477.398529,2.802202 476.497894,2.916580 
	C467.690704,4.035078 458.785645,4.546452 450.054993,6.070142 
	C432.140747,9.196557 414.147614,12.142638 396.493011,16.424694 
	C366.157227,23.782532 336.847534,34.301949 308.369690,47.187515 
	C272.251465,63.530178 238.593094,83.965019 206.937683,107.698158 
	C182.356522,126.127480 159.938461,147.085129 139.104706,169.593781 
	C115.143585,195.481201 93.770889,223.465637 76.065979,254.053574 
	C67.169312,269.423920 58.451088,284.954712 50.720245,300.929840 
	C37.838890,327.548004 27.110960,355.093872 20.021612,383.863617 
	C14.930110,404.525757 10.359479,425.332642 6.231000,446.208374 
	C4.323077,455.855774 4.052204,465.824585 2.964067,475.639374 
	C2.830632,476.842926 2.231215,477.994812 1.423871,479.085327 
	C1.000000,319.739594 1.000000,160.479172 1.000000,1.000000 
	C160.020828,1.000000 319.041748,1.000000 478.531342,1.000002 
z"/>
<path fill="#000000" opacity="1.000000" stroke="none" 
	d="
M820.989075,959.082764 
	C827.854126,954.356567 834.877563,949.842834 841.555481,944.865479 
	C864.420349,927.823730 885.530029,908.778564 905.269043,888.214050 
	C922.645691,870.110535 938.505371,850.742432 953.129883,830.357483 
	C970.518188,806.120117 985.699524,780.541992 998.609680,753.680176 
	C1012.566650,724.640381 1024.312500,694.690430 1031.953491,663.329102 
	C1036.757568,643.611328 1040.959106,623.729614 1044.776855,603.796082 
	C1046.627441,594.133484 1046.947632,584.179871 1048.035522,574.366272 
	C1048.168945,573.161926 1048.766235,572.009094 1049.574219,570.916138 
	C1050.000000,730.259644 1050.000000,889.519287 1050.000000,1049.000000 
	C894.312500,1049.000000 738.624939,1049.000000 582.128784,1048.654907 
	C586.249695,1047.509033 591.213684,1046.877319 596.102722,1045.878784 
	C618.405212,1041.323486 640.797058,1037.135132 662.949158,1031.930664 
	C694.207642,1024.586792 723.966187,1012.811035 752.826416,998.886536 
	C766.897827,992.097412 780.659973,984.602356 794.197510,976.794739 
	C803.454102,971.455994 812.080811,965.025330 820.989075,959.082764 
z"/>
<path fill="#000000" opacity="1.000000" stroke="none" 
	d="
M1.000001,572.468628 
	C1.663418,572.830627 2.802201,573.600830 2.916569,574.501160 
	C4.035017,583.306458 4.531582,592.213074 6.072790,600.937622 
	C9.263437,618.999390 12.316889,637.129272 16.634089,654.938477 
	C24.143486,685.916321 34.932171,715.807434 48.283138,744.805237 
	C63.606350,778.086670 82.304665,809.256653 104.061249,838.729187 
	C123.200668,864.656311 144.454956,888.703857 168.197128,910.335999 
	C185.075027,925.713989 203.551605,939.340698 221.374847,953.674255 
	C224.175034,955.926147 227.294861,957.780579 230.789032,960.230591 
	C248.263687,970.733704 264.895203,981.419312 282.239075,990.785828 
	C313.194916,1007.503418 345.803558,1020.467041 379.721466,1029.804932 
	C397.001953,1034.562378 414.587952,1038.304688 432.169830,1041.839478 
	C443.740295,1044.165771 455.554138,1045.274536 467.240936,1047.047241 
	C467.910583,1047.148926 468.417389,1048.324341 469.000000,1049.000000 
	C313.072235,1049.000000 157.144440,1049.000000 1.000000,1049.000000 
	C1.000000,890.312500 1.000000,731.624939 1.000001,572.468628 
z"/>
<path fill="#97C1DE" opacity="1.000000" stroke="none" 
	d="
M469.468658,1049.000000 
	C468.417389,1048.324341 467.910583,1047.148926 467.240936,1047.047241 
	C455.554138,1045.274536 443.740295,1044.165771 432.169830,1041.839478 
	C414.587952,1038.304688 397.001953,1034.562378 379.721466,1029.804932 
	C345.803558,1020.467041 313.194916,1007.503418 282.239075,990.785828 
	C264.895203,981.419312 248.263687,970.733704 231.107330,960.362488 
	C234.285568,927.341797 238.634964,894.774536 246.854813,862.809937 
	C250.065048,850.326294 257.986603,841.337463 267.308899,833.412720 
	C273.853485,827.849243 281.147644,823.167664 288.298523,818.451782 
	C287.343384,827.682861 287.244934,836.863647 284.746521,845.336670 
	C282.390167,853.327881 284.898834,858.709045 289.755981,864.112305 
	C290.311920,864.730774 290.782715,865.426331 291.344635,866.038757 
	C321.165192,898.536682 357.355103,921.007690 399.336761,934.163147 
	C405.535248,936.105530 412.175079,936.639526 418.262573,937.760986 
	C413.928894,911.853943 409.269958,887.016479 405.723297,862.021179 
	C401.494080,832.215515 398.206757,802.276001 394.578888,772.386230 
	C394.456787,771.380310 395.065643,770.285583 395.711914,769.191895 
	C410.385956,765.054626 424.681946,760.957642 438.990479,757.296204 
	C436.808533,769.177002 437.379486,780.286194 444.270294,790.130554 
	C448.139404,795.658081 452.786255,800.641235 457.063904,806.266602 
	C459.076263,813.337646 460.882263,820.090393 463.179199,826.671692 
	C471.372681,850.147888 480.870270,873.038391 496.085052,892.998291 
	C503.726807,903.023499 512.147522,912.327087 525.986450,913.951294 
	C525.991760,959.258484 525.995850,1004.129211 526.000000,1049.000000 
	C507.312439,1049.000000 488.624878,1049.000000 469.468658,1049.000000 
z"/>
<path fill="#8DB3CF" opacity="1.000000" stroke="none" 
	d="
M526.468628,1049.000000 
	C525.995850,1004.129211 525.991760,959.258484 526.392212,913.816528 
	C538.877563,912.444519 546.863159,904.818176 553.775330,896.171875 
	C574.177246,870.651001 585.254517,840.609497 594.616211,809.815491 
	C594.878540,808.952698 594.237671,807.815247 594.124878,806.503662 
	C603.691162,797.613281 612.303833,788.313049 614.224792,775.081604 
	C615.043335,769.443726 614.181824,763.561890 614.479004,757.832642 
	C624.563599,760.982117 634.252991,764.089905 643.918335,767.608643 
	C638.918579,824.172119 632.925659,880.286194 636.748474,936.989929 
	C638.163757,936.989929 638.824951,937.102478 639.435242,936.973816 
	C673.085083,929.881958 705.225708,918.964294 733.833374,899.283203 
	C746.431396,890.616211 757.542480,880.344910 765.565796,867.187256 
	C766.921021,864.964844 767.244141,861.674561 766.982910,858.980591 
	C765.843811,847.235962 764.312927,835.529236 762.924316,823.808777 
	C766.796387,826.309448 770.908386,828.508667 774.497620,831.364746 
	C787.667480,841.844421 801.041199,852.335266 805.266602,869.879333 
	C808.133423,881.782715 810.868530,893.748596 812.899597,905.814941 
	C815.836670,923.265015 818.083130,940.831299 820.806641,958.715393 
	C812.080811,965.025330 803.454102,971.455994 794.197510,976.794739 
	C780.659973,984.602356 766.897827,992.097412 752.826416,998.886536 
	C723.966187,1012.811035 694.207642,1024.586792 662.949158,1031.930664 
	C640.797058,1037.135132 618.405212,1041.323486 596.102722,1045.878784 
	C591.213684,1046.877319 586.249695,1047.509033 581.660095,1048.654907 
	C563.645752,1049.000000 545.291565,1049.000000 526.468628,1049.000000 
z"/>
<path fill="#23262B" opacity="1.000000" stroke="none" 
	d="
M762.873657,823.396851 
	C764.312927,835.529236 765.843811,847.235962 766.982910,858.980591 
	C767.244141,861.674561 766.921021,864.964844 765.565796,867.187256 
	C757.542480,880.344910 746.431396,890.616211 733.833374,899.283203 
	C705.225708,918.964294 673.085083,929.881958 639.435242,936.973816 
	C638.824951,937.102478 638.163757,936.989929 636.748474,936.989929 
	C632.925659,880.286194 638.918579,824.172119 643.936646,767.169495 
	C644.320374,763.193665 644.694702,760.071167 644.996826,756.941711 
	C645.776611,748.864746 646.443909,740.776184 647.305115,732.708130 
	C648.464294,721.848938 649.776917,711.006348 650.998230,700.153687 
	C652.442322,687.322144 653.838928,674.485229 655.293579,661.654846 
	C656.840820,648.007629 658.414612,634.363464 660.009644,620.721741 
	C661.181885,610.695557 662.531738,600.688416 663.570679,590.648804 
	C664.472717,581.931763 665.049500,573.181091 665.847046,564.070679 
	C666.315613,562.101562 666.877380,560.527466 667.071106,558.909180 
	C668.278320,548.827698 669.257446,538.717163 670.583374,528.651917 
	C674.109436,501.885681 673.912231,475.192719 669.466248,448.544189 
	C662.584045,407.293701 648.209351,368.623474 628.802490,331.767426 
	C622.030640,318.906921 614.322205,306.539612 606.672302,293.308533 
	C605.545898,294.967377 605.035583,295.599091 604.652710,296.300415 
	C594.670044,314.586761 582.149963,331.038910 566.571594,344.759766 
	C553.633240,356.155426 539.551514,366.252960 525.629028,376.987640 
	C490.274109,398.568390 451.995331,411.636871 411.799469,418.424103 
	C398.524292,420.665710 393.759888,427.427338 391.015289,438.660126 
	C381.329498,478.301117 381.101440,518.673096 381.301697,559.616699 
	C381.477356,570.262207 381.647461,580.391296 382.015686,590.513184 
	C382.601288,606.607971 383.130249,622.708557 384.028320,638.787415 
	C385.165649,659.150085 386.563049,679.499573 388.008789,699.843323 
	C389.230621,717.036316 390.521545,734.227783 392.117188,751.388794 
	C392.674683,757.384460 394.232697,763.287109 395.333801,769.232239 
	C395.065643,770.285583 394.456787,771.380310 394.578888,772.386230 
	C398.206757,802.276001 401.494080,832.215515 405.723297,862.021179 
	C409.269958,887.016479 413.928894,911.853943 418.262573,937.760986 
	C412.175079,936.639526 405.535248,936.105530 399.336761,934.163147 
	C357.355103,921.007690 321.165192,898.536682 291.344635,866.038757 
	C290.782715,865.426331 290.311920,864.730774 289.755981,864.112305 
	C284.898834,858.709045 282.390167,853.327881 284.746521,845.336670 
	C287.244934,836.863647 287.343384,827.682861 288.643188,818.426758 
	C289.935577,797.116272 291.480652,776.202515 292.105774,755.261169 
	C292.806122,731.797913 293.343475,708.293030 292.754852,684.836243 
	C291.740448,644.413147 288.077759,604.238281 280.600830,564.380554 
	C276.809174,544.168274 275.242676,523.526367 272.955994,503.046783 
	C269.363190,470.870026 269.186646,438.545807 270.195129,406.257202 
	C271.848114,353.335266 286.602386,304.598663 319.018707,262.053375 
	C346.289551,226.261322 381.738007,201.335617 423.435028,185.047287 
	C449.620178,174.818451 476.745026,168.509918 504.760712,165.881775 
	C578.002747,159.010910 643.074707,179.420929 700.211426,225.121109 
	C738.508179,255.752426 762.233521,295.870544 773.904724,343.338043 
	C779.520508,366.177460 782.894409,389.274750 784.222412,412.789978 
	C786.051880,445.184296 783.618469,477.284698 779.147400,509.283722 
	C775.421753,535.947876 770.784485,562.488708 767.322327,589.184204 
	C765.143555,605.983521 763.913269,622.944641 763.105286,639.873718 
	C761.931091,664.475220 761.162598,689.109131 760.882080,713.736755 
	C760.569336,741.191162 760.866943,768.655396 761.176575,796.112244 
	C761.277649,805.074890 762.249390,814.027649 762.873657,823.396851 
z"/>
<path fill="#F8EACB" opacity="1.000000" stroke="none" 
	d="
M457.082703,805.869690 
	C452.786255,800.641235 448.139404,795.658081 444.270294,790.130554 
	C437.379486,780.286194 436.808533,769.177002 439.048859,756.909790 
	C441.442078,747.812256 443.746338,739.524048 446.159424,731.267639 
	C447.044464,728.239502 448.958252,725.319580 449.087677,722.294128 
	C449.946014,702.230103 450.447021,682.150940 451.350159,662.232300 
	C452.952393,663.660339 454.370422,664.844055 455.569611,666.218689 
	C469.684143,682.398193 484.894379,697.432068 501.946503,710.528564 
	C526.276978,729.214966 552.522278,744.322327 581.906250,753.440796 
	C569.491211,763.341736 555.157410,766.371765 539.592285,767.023804 
	C530.929749,767.012512 522.741821,767.012512 514.553894,767.012512 
	C514.574402,767.136047 514.594971,767.259521 514.615479,767.383057 
	C518.094238,767.953552 521.573059,768.524048 524.844971,769.353271 
	C511.997833,779.081604 505.061981,792.054016 502.041718,807.229370 
	C500.276642,816.097961 499.130188,825.089661 497.637512,834.452148 
	C482.473511,826.739990 469.475830,816.738525 457.082703,805.869690 
z"/>
<path fill="#314558" opacity="1.000000" stroke="none" 
	d="
M457.063904,806.266602 
	C469.475830,816.738525 482.473511,826.739990 497.637512,834.452148 
	C499.130188,825.089661 500.276642,816.097961 502.041718,807.229370 
	C505.061981,792.054016 511.997833,779.081604 525.189453,769.302246 
	C526.195190,768.916565 526.649780,768.840759 527.368042,768.976440 
	C549.295837,785.397156 552.092957,809.620911 554.594482,834.578064 
	C569.478577,826.845642 582.325928,817.660156 594.018005,806.805908 
	C594.237671,807.815247 594.878540,808.952698 594.616211,809.815491 
	C585.254517,840.609497 574.177246,870.651001 553.775330,896.171875 
	C546.863159,904.818176 538.877563,912.444519 526.391113,913.380127 
	C512.147522,912.327087 503.726807,903.023499 496.085052,892.998291 
	C480.870270,873.038391 471.372681,850.147888 463.179199,826.671692 
	C460.882263,820.090393 459.076263,813.337646 457.063904,806.266602 
z"/>
<path fill="#15171B" opacity="1.000000" stroke="none" 
	d="
M451.064331,662.076660 
	C450.447021,682.150940 449.946014,702.230103 449.087677,722.294128 
	C448.958252,725.319580 447.044464,728.239502 446.159424,731.267639 
	C443.746338,739.524048 441.442078,747.812256 439.036316,756.474243 
	C424.681946,760.957642 410.385956,765.054626 395.711884,769.191895 
	C394.232697,763.287109 392.674683,757.384460 392.117188,751.388794 
	C390.521545,734.227783 389.230621,717.036316 388.008789,699.843323 
	C386.563049,679.499573 385.165649,659.150085 384.028320,638.787415 
	C383.130249,622.708557 382.601288,606.607971 382.015686,590.513184 
	C381.647461,580.391296 381.477356,570.262207 381.543640,559.895386 
	C395.819824,583.924500 411.586182,606.940552 429.639343,628.349121 
	C436.378571,636.340942 443.408905,644.087280 450.224487,652.379028 
	C450.449768,655.900513 450.757050,658.988586 451.064331,662.076660 
z"/>
<path fill="#15171A" opacity="1.000000" stroke="none" 
	d="
M665.770020,564.445251 
	C665.049500,573.181091 664.472717,581.931763 663.570679,590.648804 
	C662.531738,600.688416 661.181885,610.695557 660.009644,620.721741 
	C658.414612,634.363464 656.840820,648.007629 655.293579,661.654846 
	C653.838928,674.485229 652.442322,687.322144 650.998230,700.153687 
	C649.776917,711.006348 648.464294,721.848938 647.305115,732.708130 
	C646.443909,740.776184 645.776611,748.864746 644.996826,756.941711 
	C644.694702,760.071167 644.320374,763.193665 643.960571,766.758545 
	C634.252991,764.089905 624.563599,760.982117 614.325928,757.486694 
	C611.482605,748.875671 609.276550,740.625366 606.813354,732.452637 
	C606.352356,730.922852 604.862610,729.703064 603.589844,727.982910 
	C602.888794,704.559021 602.443970,681.492432 602.004089,658.425842 
	C601.956787,655.945801 601.938416,653.465210 602.012085,650.652832 
	C603.087097,649.004822 603.988037,647.631226 605.037170,646.382019 
	C613.056580,636.833984 621.697021,627.740906 629.012939,617.683350 
	C641.694397,600.249390 653.561401,582.223083 665.770020,564.445251 
z"/>
<path fill="#F8F8F8" opacity="1.000000" stroke="none" 
	d="
M603.847534,728.340271 
	C604.862610,729.703064 606.352356,730.922852 606.813354,732.452637 
	C609.276550,740.625366 611.482605,748.875671 613.930664,757.445068 
	C614.181824,763.561890 615.043335,769.443726 614.224792,775.081604 
	C612.303833,788.313049 603.691162,797.613281 594.124878,806.503662 
	C582.325928,817.660156 569.478577,826.845642 554.594482,834.578064 
	C552.092957,809.620911 549.295837,785.397156 527.697632,768.750977 
	C531.864624,767.887756 535.965820,767.461365 540.066956,767.035034 
	C555.157410,766.371765 569.491211,763.341736 582.190063,753.259277 
	C589.724609,744.646667 596.786072,736.493469 603.847534,728.340271 
z"/>
<path fill="#F9DFA9" opacity="1.000000" stroke="none" 
	d="
M665.847046,564.070679 
	C653.561401,582.223083 641.694397,600.249390 629.012939,617.683350 
	C621.697021,627.740906 613.056580,636.833984 605.037170,646.382019 
	C603.988037,647.631226 603.087097,649.004822 601.675903,650.702271 
	C599.010925,653.034668 596.843750,655.054199 594.554688,656.924744 
	C583.947388,665.592651 573.811462,674.960571 562.531799,682.647156 
	C551.741516,690.000366 539.819702,695.802795 525.986694,694.502563 
	C525.987305,588.332397 525.981750,482.628937 525.976257,376.925537 
	C539.551514,366.252960 553.633240,356.155426 566.571594,344.759766 
	C582.149963,331.038910 594.670044,314.586761 604.652710,296.300415 
	C605.035583,295.599091 605.545898,294.967377 606.672302,293.308533 
	C614.322205,306.539612 622.030640,318.906921 628.802490,331.767426 
	C648.209351,368.623474 662.584045,407.293701 669.466248,448.544189 
	C673.912231,475.192719 674.109436,501.885681 670.583374,528.651917 
	C669.257446,538.717163 668.278320,548.827698 667.071106,558.909180 
	C666.877380,560.527466 666.315613,562.101562 665.847046,564.070679 
z"/>
<path fill="#FFE8B9" opacity="1.000000" stroke="none" 
	d="
M525.629028,376.987610 
	C525.981750,482.628937 525.987305,588.332397 525.544250,694.513245 
	C522.624329,694.784241 520.102844,694.823669 517.689392,694.332581 
	C497.975739,690.321045 482.156921,679.130005 467.119354,666.588074 
	C461.413391,661.829102 455.904938,656.833374 450.306488,651.945557 
	C443.408905,644.087280 436.378571,636.340942 429.639343,628.349121 
	C411.586182,606.940552 395.819824,583.924500 381.626984,559.375732 
	C381.101440,518.673096 381.329498,478.301117 391.015289,438.660126 
	C393.759888,427.427338 398.524292,420.665710 411.799469,418.424103 
	C451.995331,411.636871 490.274109,398.568390 525.629028,376.987610 
z"/>
<path fill="#EACE95" opacity="1.000000" stroke="none" 
	d="
M450.224487,652.379028 
	C455.904938,656.833374 461.413391,661.829102 467.119354,666.588074 
	C482.156921,679.130005 497.975739,690.321045 517.689392,694.332581 
	C520.102844,694.823669 522.624329,694.784241 525.538208,694.979980 
	C539.819702,695.802795 551.741516,690.000366 562.531799,682.647156 
	C573.811462,674.960571 583.947388,665.592651 594.554688,656.924744 
	C596.843750,655.054199 599.010925,653.034668 601.570435,651.034302 
	C601.938416,653.465210 601.956787,655.945801 602.004089,658.425842 
	C602.443970,681.492432 602.888794,704.559021 603.589844,727.982910 
	C596.786072,736.493469 589.724609,744.646667 582.379272,752.981384 
	C552.522278,744.322327 526.276978,729.214966 501.946503,710.528564 
	C484.894379,697.432068 469.684143,682.398193 455.569611,666.218689 
	C454.370422,664.844055 452.952393,663.660339 451.350189,662.232300 
	C450.757050,658.988586 450.449768,655.900513 450.224487,652.379028 
z"/>
<path fill="#D2CCBB" opacity="1.000000" stroke="none" 
	d="
M539.592285,767.023804 
	C535.965820,767.461365 531.864624,767.887756 527.433899,768.539551 
	C526.649780,768.840759 526.195190,768.916565 525.396240,769.043518 
	C521.573059,768.524048 518.094238,767.953552 514.615479,767.383057 
	C514.594971,767.259521 514.574402,767.136047 514.553894,767.012512 
	C522.741821,767.012512 530.929749,767.012512 539.592285,767.023804 
z"/>
</svg>